<?xml version="1.0" encoding="UTF-8" standalone="no"?>
<!DOCTYPE svg PUBLIC "-//W3C//DTD SVG 1.1//EN" "http://www.w3.org/Graphics/SVG/1.1/DTD/svg11.dtd">
<svg xmlns="http://www.w3.org/2000/svg" version="1.1" viewBox="0.00 0.00 640.00 218.00">
<ellipse fill="#fefefe" cx="0.00" cy="0.00" transform="translate(68.00,41.33) rotate(-81.0)" rx="34.97" ry="34.46"/>
<ellipse fill="#fefefe" cx="0.00" cy="0.00" transform="translate(288.74,70.55) rotate(-176.1)" rx="11.12" ry="10.84"/>
<path fill="#fefefe" d="
  M 237.49 130.11
  Q 234.34 132.51 229.77 137.80
  C 226.68 141.36 230.40 147.88 227.24 151.86
  C 223.04 157.15 213.31 155.44 213.31 147.45
  Q 213.34 105.01 213.40 67.95
  C 213.42 59.07 228.27 58.22 228.43 68.78
  Q 228.51 74.30 228.66 116.57
  A 0.59 0.58 77.1 0 0 229.50 117.10
  Q 230.14 116.79 230.48 116.47
  Q 237.86 109.67 255.72 91.25
  C 262.41 84.35 273.90 92.63 266.56 100.31
  Q 258.12 109.14 249.65 117.52
  A 1.72 1.71 49.7 0 0 249.47 119.74
  C 252.98 124.59 258.82 130.81 268.09 141.37
  C 271.59 145.36 271.78 151.63 266.61 154.01
  C 262.19 156.04 258.97 153.81 256.11 150.41
  Q 248.62 141.51 238.53 130.21
  A 0.78 0.77 50.1 0 0 237.49 130.11
  Z"
/>
<path fill="#fefefe" d="
  M 585.73 96.27
  A 0.40 0.40 0.0 0 0 586.36 96.40
  Q 598.55 85.22 614.35 90.35
  C 624.09 93.51 628.12 104.07 628.11 114.28
  Q 628.07 136.35 628.32 145.56
  C 628.49 151.72 625.54 156.41 618.76 154.93
  Q 613.01 153.68 612.99 145.99
  Q 612.93 121.63 612.97 116.75
  C 613.02 109.86 610.54 103.19 602.59 102.64
  C 588.43 101.66 585.01 111.62 584.97 123.51
  Q 584.93 136.70 585.17 143.08
  Q 585.43 150.11 583.70 152.26
  C 579.61 157.38 570.03 155.49 570.03 147.98
  Q 570.04 120.72 570.22 68.25
  C 570.24 62.90 574.84 60.28 579.78 61.34
  C 584.36 62.31 585.18 66.21 585.19 70.77
  Q 585.23 89.36 585.43 94.75
  Q 585.47 95.68 585.73 96.27
  Z"
/>
<circle fill="#fefefe" cx="129.33" cy="92.48" r="30.49"/>
<path fill="#fefefe" d="
  M 526.05 89.16
  Q 526.45 84.95 526.24 75.54
  C 526.06 67.18 540.55 66.43 540.87 76.45
  Q 540.96 79.04 540.90 88.41
  A 1.58 1.58 0.0 0 0 542.49 90.00
  Q 549.40 89.93 550.23 89.90
  C 556.00 89.70 559.97 90.64 559.88 97.00
  Q 559.80 103.06 553.69 103.26
  Q 546.56 103.49 542.14 103.35
  A 1.31 1.30 -89.2 0 0 540.80 104.66
  Q 540.82 118.93 540.77 132.31
  C 540.76 137.22 542.78 141.63 548.24 141.58
  C 550.70 141.56 555.39 140.20 557.55 141.18
  C 561.66 143.04 561.20 149.17 558.48 152.09
  C 554.53 156.33 543.73 155.69 538.70 154.53
  C 528.34 152.14 526.08 144.91 526.20 135.25
  Q 526.40 117.78 526.12 104.73
  A 1.26 1.26 0.0 0 0 524.80 103.49
  C 520.40 103.68 514.10 104.57 512.82 98.88
  C 511.72 94.02 514.38 90.24 519.53 90.17
  Q 524.15 90.11 525.35 89.91
  A 0.85 0.84 -2.3 0 0 526.05 89.16
  Z"
/>
<path fill="#fefefe" d="
  M 79.94 203.24
  Q 78.39 203.42 75.43 202.90
  C 45.49 197.61 22.89 175.23 13.10 146.85
  C 4.85 122.93 5.95 83.87 39.58 80.99
  C 54.11 79.75 67.19 86.31 77.38 96.63
  Q 93.36 112.80 103.22 132.78
  Q 105.02 136.42 105.55 139.32
  A 1.38 1.37 74.5 0 1 104.68 140.87
  C 97.92 143.35 91.45 139.88 87.30 134.58
  C 80.42 125.77 73.56 116.05 60.91 120.93
  Q 54.87 123.26 51.53 129.57
  C 47.57 137.03 46.72 145.52 48.23 154.33
  C 51.67 174.32 63.48 191.39 80.06 202.75
  A 0.27 0.27 0.0 0 1 79.94 203.24
  Z"
/>
<path fill="#fefefe" d="
  M 326.08 97.28
  A 0.37 0.37 0.0 0 0 326.71 97.47
  Q 337.67 85.86 353.59 89.63
  C 363.65 92.01 368.71 100.91 369.00 111.28
  Q 369.23 119.58 369.15 142.18
  Q 369.13 149.69 368.00 151.58
  Q 365.67 155.51 359.46 154.46
  Q 354.45 153.62 354.33 148.00
  Q 353.87 127.41 354.06 121.32
  C 354.31 113.42 353.66 103.22 343.51 102.48
  Q 330.01 101.50 326.84 114.23
  Q 326.01 117.55 326.04 125.25
  Q 326.08 134.50 326.20 142.58
  Q 326.31 149.57 325.04 151.60
  C 322.42 155.81 314.28 156.42 311.71 151.55
  Q 310.83 149.88 310.84 145.30
  Q 310.91 120.80 310.87 96.78
  Q 310.86 88.90 318.76 89.22
  C 324.04 89.44 325.30 92.82 326.08 97.28
  Z"
/>
<path fill="#fefefe" d="
  M 398.17 148.78
  A 0.50 0.50 0.0 0 0 397.38 149.18
  Q 397.12 160.94 397.22 173.20
  Q 397.27 178.40 396.01 180.16
  C 392.75 184.74 384.50 183.98 382.51 178.72
  Q 382.02 177.41 382.03 169.70
  Q 382.08 126.97 382.18 98.24
  Q 382.20 91.36 386.93 89.91
  C 392.08 88.32 396.67 90.52 397.21 96.36
  A 0.58 0.57 63.5 0 0 398.21 96.70
  C 407.67 86.25 424.83 86.19 435.08 95.21
  Q 442.54 101.77 444.99 113.42
  C 448.15 128.44 443.43 147.42 427.10 153.86
  Q 413.91 159.06 401.25 151.14
  C 400.03 150.38 399.14 149.47 398.17 148.78
  Z
  M 397.08 121.88
  C 396.65 132.42 400.64 142.75 412.73 143.25
  C 424.82 143.74 429.64 133.76 430.07 123.23
  C 430.50 112.70 426.51 102.36 414.42 101.87
  C 402.32 101.37 397.51 111.35 397.08 121.88
  Z"
/>
<rect fill="#fefefe" x="281.35" y="89.29" width="15.12" height="65.74" rx="7.06"/>
<path fill="#fefefe" d="
  M 492.72 148.35
  Q 492.66 148.37 490.84 149.92
  C 481.26 158.06 456.54 159.48 452.97 143.52
  C 447.24 117.89 473.98 113.12 491.90 116.34
  A 0.81 0.80 -83.4 0 0 492.84 115.59
  C 493.60 99.34 476.07 99.17 466.57 105.83
  C 461.81 109.16 455.72 107.18 455.28 101.02
  C 454.93 96.25 459.46 93.15 463.69 91.66
  C 471.84 88.78 485.05 88.12 493.03 90.95
  C 502.96 94.48 507.76 104.29 507.86 114.45
  Q 508.00 130.29 508.07 142.04
  C 508.11 148.70 508.60 154.11 501.34 155.03
  C 498.06 155.44 495.07 153.86 494.12 150.57
  Q 493.63 148.88 493.50 148.62
  A 0.61 0.60 -25.7 0 0 492.72 148.35
  Z
  M 491.27 125.56
  C 484.38 124.99 469.02 125.73 467.15 134.83
  C 466.35 138.73 468.85 142.48 472.47 143.77
  Q 477.51 145.57 483.00 143.51
  Q 494.25 139.28 492.61 126.84
  A 1.48 1.47 -1.2 0 0 491.27 125.56
  Z"
/>
<path fill="#fefefe" d="
  M 57.22 137.22
  C 59.35 129.89 66.25 125.04 73.04 131.27
  C 77.12 135.01 80.53 140.85 84.64 144.41
  C 95.74 153.99 107.92 151.25 118.72 142.74
  C 126.67 136.47 133.73 130.85 143.72 129.02
  C 159.01 126.21 173.80 134.64 171.79 151.81
  C 168.27 181.81 136.84 206.29 106.82 203.59
  Q 100.10 202.99 92.54 199.71
  Q 74.54 191.91 64.80 175.01
  C 58.37 163.84 53.65 149.52 57.22 137.22
  Z"
/>
</svg>
