<?xml version="1.0" encoding="UTF-8" standalone="no"?>
<!DOCTYPE svg PUBLIC "-//W3C//DTD SVG 1.1//EN" "http://www.w3.org/Graphics/SVG/1.1/DTD/svg11.dtd">
<svg xmlns="http://www.w3.org/2000/svg" version="1.1" viewBox="0.00 0.00 640.00 218.00">
<ellipse fill="#394e53" cx="0.00" cy="0.00" transform="translate(68.00,41.33) rotate(-80.6)" rx="34.97" ry="34.46"/>
<ellipse fill="#86a195" cx="0.00" cy="0.00" transform="translate(288.73,70.54) rotate(-176.7)" rx="11.11" ry="10.84"/>
<path fill="#394e53" d="
  M 228.91 116.75
  A 0.72 0.71 -33.9 0 0 230.06 116.97
  Q 243.06 104.40 256.09 90.87
  Q 257.85 89.04 261.01 88.77
  C 267.53 88.21 271.49 95.02 266.78 100.06
  Q 260.28 107.01 249.81 117.34
  C 247.94 119.18 250.39 120.84 251.61 122.44
  Q 253.30 124.66 267.78 140.98
  C 271.24 144.87 272.24 151.30 266.73 153.91
  C 262.05 156.13 259.14 153.85 255.90 150.11
  Q 243.50 135.79 239.91 131.64
  Q 238.95 130.54 238.52 130.27
  A 1.31 1.30 -50.4 0 0 236.95 130.42
  Q 233.35 133.76 229.74 137.74
  C 227.02 140.72 229.34 145.51 228.41 148.98
  Q 226.47 156.26 218.26 154.38
  Q 213.48 153.29 213.41 147.78
  Q 213.27 135.50 213.45 69.77
  C 213.45 66.38 213.78 63.73 216.75 62.21
  C 221.70 59.67 228.20 61.70 228.33 68.04
  Q 228.63 82.92 228.57 115.01
  Q 228.57 115.96 228.91 116.75
  Z"
/>
<path fill="#394e53" d="
  M 585.95 96.35
  A 0.23 0.23 0.0 0 0 586.32 96.44
  Q 598.95 84.97 614.94 90.56
  C 623.33 93.50 627.94 103.28 628.01 112.27
  Q 628.22 142.73 628.26 144.50
  C 628.36 149.41 628.03 154.12 622.00 155.02
  Q 616.71 155.81 614.11 151.46
  Q 613.12 149.80 613.00 144.99
  Q 612.92 141.76 613.03 117.50
  Q 613.05 113.45 612.09 110.05
  C 609.85 102.10 600.05 101.03 593.48 104.08
  C 587.71 106.75 585.37 112.99 585.14 118.94
  Q 584.84 127.10 585.17 143.66
  Q 585.28 149.06 584.43 150.93
  C 581.29 157.88 569.96 156.01 569.98 147.50
  Q 570.13 86.72 570.25 68.00
  C 570.32 58.84 585.03 58.52 585.13 68.59
  Q 585.33 89.82 585.30 92.00
  Q 585.27 94.66 585.95 96.35
  Z"
/>
<circle fill="#394e53" cx="129.34" cy="92.48" r="30.49"/>
<path fill="#394e53" d="
  M 526.16 104.71
  A 1.18 1.17 90.0 0 0 525.02 103.56
  C 520.45 103.44 514.28 104.77 512.87 99.03
  C 511.81 94.74 513.77 90.72 518.50 90.26
  Q 520.80 90.04 524.81 90.08
  A 1.46 1.46 0.0 0 0 526.29 88.63
  Q 526.31 81.63 526.23 76.28
  C 526.10 66.62 540.44 66.84 540.82 76.00
  Q 541.04 81.31 540.89 87.73
  Q 540.84 90.06 543.00 90.01
  Q 551.39 89.81 553.99 89.99
  C 561.04 90.49 561.78 100.13 556.77 102.61
  C 553.91 104.03 545.92 103.25 542.45 103.34
  A 1.80 1.79 -1.1 0 0 540.70 105.15
  Q 540.85 118.84 540.70 132.49
  Q 540.69 134.23 541.42 136.60
  C 543.25 142.52 548.33 141.86 553.19 141.06
  C 557.12 140.42 560.24 141.50 560.48 145.68
  Q 560.91 153.16 552.94 154.72
  C 544.18 156.44 531.10 155.28 527.53 145.68
  Q 526.20 142.10 526.24 136.77
  Q 526.41 113.72 526.16 104.71
  Z"
/>
<path fill="#86a195" d="
  M 80.21 203.37
  Q 78.42 203.37 75.79 202.93
  C 34.89 196.04 5.46 154.99 9.13 114.11
  C 10.80 95.48 21.98 81.47 41.53 80.88
  C 55.69 80.45 67.84 86.90 77.63 96.88
  Q 93.55 113.09 103.29 132.96
  Q 105.02 136.49 105.54 139.07
  A 1.66 1.65 -15.2 0 1 104.45 140.96
  C 89.66 145.97 84.32 126.08 74.07 121.19
  Q 67.19 117.91 59.69 121.45
  C 50.07 126.00 46.74 139.72 47.62 149.47
  C 49.61 171.30 62.26 190.75 80.33 202.97
  A 0.22 0.22 0.0 0 1 80.21 203.37
  Z"
/>
<path fill="#394e53" d="
  M 326.18 97.27
  A 0.41 0.40 -34.8 0 0 326.86 97.39
  Q 334.22 89.22 345.23 88.76
  C 360.04 88.13 368.88 97.52 369.06 112.01
  Q 369.29 130.81 369.05 147.50
  C 368.96 153.84 362.87 156.20 357.63 153.90
  C 354.30 152.44 354.05 148.45 354.09 144.75
  Q 354.11 143.27 354.05 118.76
  C 354.03 111.33 352.49 102.93 343.28 102.40
  C 331.22 101.71 326.19 109.78 326.10 120.52
  Q 326.02 130.06 326.16 147.73
  A 5.17 5.08 -37.4 0 1 325.94 149.28
  Q 323.82 156.32 315.75 154.56
  C 310.64 153.44 310.85 148.70 310.87 143.73
  Q 310.98 106.31 310.86 99.01
  C 310.76 93.26 311.79 89.31 317.99 89.22
  Q 324.45 89.11 325.62 95.13
  Q 325.91 96.62 326.18 97.27
  Z"
/>
<path fill="#394e53" d="
  M 398.39 96.46
  Q 404.88 89.81 413.49 88.94
  C 436.20 86.64 447.15 105.86 445.68 126.01
  C 444.75 138.62 438.06 150.40 425.47 154.43
  Q 411.01 159.06 398.52 149.05
  A 0.75 0.75 0.0 0 0 397.30 149.64
  Q 397.29 151.43 397.23 171.83
  Q 397.21 178.22 396.19 179.86
  C 393.47 184.25 384.86 184.41 382.82 179.20
  Q 381.99 177.08 381.99 171.75
  Q 381.99 151.33 382.20 99.75
  C 382.21 97.91 382.21 95.17 382.95 93.50
  C 385.22 88.42 393.50 87.94 396.21 92.84
  C 396.81 93.93 396.95 95.41 397.55 96.37
  A 0.53 0.53 0.0 0 0 398.39 96.46
  Z
  M 397.07 121.87
  C 396.63 132.35 400.62 142.76 412.72 143.26
  C 424.81 143.77 429.65 133.73 430.08 123.24
  C 430.52 112.75 426.53 102.35 414.44 101.84
  C 402.34 101.34 397.51 111.38 397.07 121.87
  Z"
/>
<rect fill="#394e53" x="-7.55" y="-32.85" transform="translate(288.91,122.15) rotate(-0.1)" width="15.10" height="65.70" rx="7.00"/>
<path fill="#394e53" d="
  M 493.01 148.50
  Q 492.23 148.90 489.63 150.79
  C 480.15 157.73 457.47 158.99 453.30 144.75
  C 451.17 137.49 451.86 127.98 458.12 122.66
  Q 463.38 118.18 471.43 116.58
  Q 481.71 114.53 488.71 116.21
  A 3.51 3.51 0.0 0 0 492.84 111.62
  L 491.92 109.00
  A 10.34 10.34 0.0 0 0 485.26 102.59
  C 478.33 100.43 471.77 102.46 465.50 106.47
  Q 463.39 107.81 460.28 107.25
  C 456.21 106.52 454.29 101.66 455.73 98.19
  Q 457.52 93.89 462.41 92.19
  Q 477.31 86.98 492.13 90.67
  C 501.75 93.06 507.32 103.25 507.75 113.02
  Q 508.02 119.26 508.09 144.41
  C 508.10 150.69 507.04 155.22 500.03 154.97
  Q 494.42 154.77 493.88 148.98
  A 0.60 0.60 0.0 0 0 493.01 148.50
  Z
  M 491.76 125.65
  Q 483.62 124.70 474.99 127.26
  C 469.80 128.80 464.60 134.26 468.00 140.00
  C 471.41 145.76 479.27 145.44 484.62 142.80
  Q 494.67 137.86 492.50 126.34
  A 0.85 0.84 -1.8 0 0 491.76 125.65
  Z"
/>
<path fill="#cc8b5d" d="
  M 58.32 134.58
  C 60.39 130.38 65.03 126.76 69.78 129.01
  Q 72.70 130.39 75.25 133.51
  C 80.50 139.92 84.61 146.27 92.66 149.23
  C 107.37 154.64 118.20 142.54 128.26 135.53
  C 137.88 128.82 153.35 125.09 163.67 132.52
  C 176.11 141.49 172.47 157.64 166.21 169.49
  Q 155.19 190.35 132.54 199.57
  Q 109.51 208.94 88.46 197.78
  C 73.93 190.09 65.01 178.40 59.22 163.06
  C 56.12 154.87 54.27 142.82 58.32 134.58
  Z"
/>
</svg>
